<svg width="34" height="34" viewBox="0 0 34 34" fill="none" xmlns="http://www.w3.org/2000/svg">
<circle cx="17" cy="17" r="16.5" fill="white" stroke="#EAECF0"/>
<path d="M14.9752 22.6833C14.8169 22.6833 14.6585 22.625 14.5335 22.5L9.4752 17.4417C9.23353 17.2 9.23353 16.8 9.4752 16.5583L14.5335 11.5C14.7752 11.2583 15.1752 11.2583 15.4169 11.5C15.6585 11.7417 15.6585 12.1417 15.4169 12.3833L10.8002 17L15.4169 21.6167C15.6585 21.8583 15.6585 22.2583 15.4169 22.5C15.3002 22.625 15.1335 22.6833 14.9752 22.6833Z" fill="#667085"/>
<path d="M24.0831 17.625H10.0581C9.71644 17.625 9.43311 17.3417 9.43311 17C9.43311 16.6583 9.71644 16.375 10.0581 16.375H24.0831C24.4248 16.375 24.7081 16.6583 24.7081 17C24.7081 17.3417 24.4248 17.625 24.0831 17.625Z" fill="#667085"/>
</svg>
