<svg width="34" height="34" viewBox="0 0 34 34" fill="none" xmlns="http://www.w3.org/2000/svg">
<circle cx="16" cy="16" r="16.5" transform="matrix(-1 0 0 1 33 1)" fill="white" stroke="#EAECF0"/>
<path d="M19.025 22.6833C19.1833 22.6833 19.3417 22.625 19.4667 22.5L24.525 17.4417C24.7667 17.2 24.7667 16.8 24.525 16.5583L19.4667 11.5C19.225 11.2583 18.825 11.2583 18.5833 11.5C18.3417 11.7417 18.3417 12.1417 18.5833 12.3833L23.2 17L18.5833 21.6167C18.3417 21.8583 18.3417 22.2583 18.5833 22.5C18.7 22.625 18.8667 22.6833 19.025 22.6833Z" fill="#667085"/>
<path d="M9.91668 17.625H23.9417C24.2833 17.625 24.5667 17.3417 24.5667 17C24.5667 16.6583 24.2833 16.375 23.9417 16.375H9.91668C9.57501 16.375 9.29168 16.6583 9.29168 17C9.29168 17.3417 9.57501 17.625 9.91668 17.625Z" fill="#667085"/>
</svg>
