<svg width="20" height="20" viewBox="0 0 20 20" fill="none" xmlns="http://www.w3.org/2000/svg">
<path d="M14.3667 18.9583H5.6334C3.30006 18.9583 1.81673 17.5667 1.6834 15.2417L1.25006 8.36666C1.1834 7.32499 1.54173 6.32499 2.2584 5.56666C2.96673 4.80832 3.96673 4.37499 5.00006 4.37499C5.26673 4.37499 5.52506 4.21666 5.65006 3.96666L6.25006 2.77499C6.74173 1.79999 7.97506 1.04166 9.05006 1.04166H10.9584C12.0334 1.04166 13.2584 1.79999 13.7501 2.76666L14.3501 3.98332C14.4751 4.21666 14.7251 4.37499 15.0001 4.37499C16.0334 4.37499 17.0334 4.80832 17.7417 5.56666C18.4584 6.33332 18.8167 7.32499 18.7501 8.36666L18.3167 15.25C18.1667 17.6083 16.7251 18.9583 14.3667 18.9583ZM9.05006 2.29166C8.4334 2.29166 7.65006 2.77499 7.36673 3.33332L6.76673 4.53332C6.41673 5.20832 5.74173 5.62499 5.00006 5.62499C4.30006 5.62499 3.65006 5.90832 3.16673 6.41666C2.69173 6.92499 2.45006 7.59166 2.50006 8.28332L2.9334 15.1667C3.0334 16.85 3.94173 17.7083 5.6334 17.7083H14.3667C16.0501 17.7083 16.9584 16.85 17.0667 15.1667L17.5001 8.28332C17.5417 7.59166 17.3084 6.92499 16.8334 6.41666C16.3501 5.90832 15.7001 5.62499 15.0001 5.62499C14.2584 5.62499 13.5834 5.20832 13.2334 4.54999L12.6251 3.33332C12.3501 2.78332 11.5667 2.29999 10.9501 2.29999H9.05006V2.29166Z" fill="white"/>
<path d="M11.25 7.29166H8.75C8.40833 7.29166 8.125 7.00832 8.125 6.66666C8.125 6.32499 8.40833 6.04166 8.75 6.04166H11.25C11.5917 6.04166 11.875 6.32499 11.875 6.66666C11.875 7.00832 11.5917 7.29166 11.25 7.29166Z" fill="white"/>
<path d="M9.99984 15.625C8.15817 15.625 6.6665 14.1333 6.6665 12.2917C6.6665 10.45 8.15817 8.95834 9.99984 8.95834C11.8415 8.95834 13.3332 10.45 13.3332 12.2917C13.3332 14.1333 11.8415 15.625 9.99984 15.625ZM9.99984 10.2083C8.84984 10.2083 7.9165 11.1417 7.9165 12.2917C7.9165 13.4417 8.84984 14.375 9.99984 14.375C11.1498 14.375 12.0832 13.4417 12.0832 12.2917C12.0832 11.1417 11.1498 10.2083 9.99984 10.2083Z" fill="white"/>
</svg>
