<svg width="36" height="36" viewBox="0 0 36 36" fill="none" xmlns="http://www.w3.org/2000/svg">
<circle cx="18" cy="18" r="18" fill="#4D96FF" fill-opacity="0.16"/>
<path d="M19.2812 13.7812H16.7188C16.4599 13.7812 16.25 13.9911 16.25 14.25C16.25 14.5089 16.4599 14.7188 16.7188 14.7188H19.2812C19.5401 14.7188 19.75 14.5089 19.75 14.25C19.75 13.9911 19.5401 13.7812 19.2812 13.7812Z" fill="#4D96FF"/>
<path d="M16.7188 16.5938H18.3438C18.6026 16.5938 18.8125 16.3839 18.8125 16.125C18.8125 15.8661 18.6026 15.6562 18.3438 15.6562H16.7188C16.4599 15.6562 16.25 15.8661 16.25 16.125C16.25 16.3839 16.4599 16.5938 16.7188 16.5938Z" fill="#4D96FF"/>
<path d="M19.2812 17.5312H16.7188C16.4599 17.5312 16.25 17.7411 16.25 18C16.25 18.2589 16.4599 18.4688 16.7188 18.4688H19.2812C19.5401 18.4688 19.75 18.2589 19.75 18C19.75 17.7411 19.5401 17.5312 19.2812 17.5312Z" fill="#4D96FF"/>
<path d="M16.7188 20.3438H18.3438C18.6026 20.3438 18.8125 20.1339 18.8125 19.875C18.8125 19.6161 18.6026 19.4062 18.3438 19.4062H16.7188C16.4599 19.4062 16.25 19.6161 16.25 19.875C16.25 20.1339 16.4599 20.3438 16.7188 20.3438Z" fill="#4D96FF"/>
<path d="M19.2812 21.2812H16.7188C16.4599 21.2812 16.25 21.4911 16.25 21.75C16.25 22.0089 16.4599 22.2188 16.7188 22.2188H19.2812C19.5401 22.2188 19.75 22.0089 19.75 21.75C19.75 21.4911 19.5401 21.2812 19.2812 21.2812Z" fill="#4D96FF"/>
<path d="M18.3438 23.1562H16.7188C16.4599 23.1562 16.25 23.3661 16.25 23.625C16.25 23.8839 16.4599 24.0938 16.7188 24.0938H18.3438C18.6026 24.0938 18.8125 23.8839 18.8125 23.625C18.8125 23.3661 18.6026 23.1562 18.3438 23.1562Z" fill="#4D96FF"/>
<path d="M15.289 14.1931C15.1059 14.0101 14.8091 14.0101 14.626 14.1931L13.6317 15.1875L13.3002 14.856C13.1171 14.673 12.8204 14.673 12.6373 14.856C12.4542 15.0391 12.4542 15.3359 12.6373 15.5189L13.3002 16.1818C13.4833 16.3649 13.7801 16.3649 13.9631 16.1818L15.289 14.856C15.472 14.673 15.472 14.3762 15.289 14.1931Z" fill="#4D96FF"/>
<path d="M14.8438 17.5312H12.9688C12.7099 17.5312 12.5 17.7411 12.5 18V19.875C12.5 20.1339 12.7099 20.3438 12.9688 20.3438H14.8438C15.1026 20.3438 15.3125 20.1339 15.3125 19.875V18C15.3125 17.7411 15.1026 17.5312 14.8438 17.5312ZM14.375 19.4062H13.4375V18.4688H14.375V19.4062Z" fill="#4D96FF"/>
<path d="M14.8438 21.2812H12.9688C12.7099 21.2812 12.5 21.4911 12.5 21.75V23.625C12.5 23.8839 12.7099 24.0938 12.9688 24.0938H14.8438C15.1026 24.0938 15.3125 23.8839 15.3125 23.625V21.75C15.3125 21.4911 15.1026 21.2812 14.8438 21.2812ZM14.375 23.1562H13.4375V22.2188H14.375V23.1562Z" fill="#4D96FF"/>
<path d="M23.9688 10.9375H18.7006C18.5071 10.3919 17.9861 10 17.375 10H14.875C14.2639 10 13.7429 10.3919 13.5494 10.9375H12.0312C11.2558 10.9375 10.625 11.5683 10.625 12.3438V24.5938C10.625 25.3692 11.2558 26 12.0312 26H23.9688C24.7442 26 25.375 25.3692 25.375 24.5938V12.3438C25.375 11.5683 24.7442 10.9375 23.9688 10.9375ZM14.4062 11.4062C14.4062 11.1478 14.6165 10.9375 14.875 10.9375H17.375C17.6335 10.9375 17.8438 11.1478 17.8438 11.4062V11.875H14.4062V11.4062ZM20.6875 24.5938C20.6875 24.8522 20.4772 25.0625 20.2188 25.0625H12.0312C11.7728 25.0625 11.5625 24.8522 11.5625 24.5938V12.3438C11.5625 12.0853 11.7728 11.875 12.0312 11.875H13.4688V12.3438C13.4688 12.6026 13.6786 12.8125 13.9375 12.8125H18.3125C18.5714 12.8125 18.7812 12.6026 18.7812 12.3438V11.875H20.2188C20.4772 11.875 20.6875 12.0853 20.6875 12.3438V24.5938ZM22.5625 24.5938C22.5625 24.8522 22.3522 25.0625 22.0938 25.0625H21.5444C21.5964 24.9158 21.625 24.7581 21.625 24.5938V12.3438C21.625 12.1794 21.5964 12.0217 21.5444 11.875H22.0938C22.3522 11.875 22.5625 12.0853 22.5625 12.3438V24.5938ZM24.4375 24.5938C24.4375 24.8522 24.2272 25.0625 23.9688 25.0625H23.4194C23.4714 24.9158 23.5 24.7581 23.5 24.5938V12.3438C23.5 12.1794 23.4714 12.0217 23.4194 11.875H23.9688C24.2272 11.875 24.4375 12.0853 24.4375 12.3438V24.5938Z" fill="#4D96FF"/>
</svg>
