<svg width="16" height="16" viewBox="0 0 16 16" fill="none" xmlns="http://www.w3.org/2000/svg">
<path d="M8.04666 14.6533C7.10666 14.6533 6.16 14.2933 5.44666 13.58L2.42666 10.56C1.69333 9.82667 1.30666 8.81333 1.35333 7.78L1.51333 4.44667C1.58666 2.85333 2.84666 1.59333 4.44666 1.51333L7.78 1.35333C8.81333 1.31333 9.82667 1.69333 10.56 2.42667L13.58 5.44667C15.0133 6.88 15.0133 9.22 13.58 10.6533L10.6533 13.58C9.93333 14.2933 8.99333 14.6533 8.04666 14.6533ZM3.13333 9.84667L6.15333 12.8667C6.66 13.3733 7.33333 13.6533 8.04666 13.6533C8.76 13.6533 9.43333 13.3733 9.94 12.8667L12.8667 9.94C13.3733 9.43333 13.6533 8.76 13.6533 8.04667C13.6533 7.33333 13.3733 6.66 12.8667 6.15333L9.84667 3.13333C9.31333 2.6 8.57333 2.31333 7.82666 2.35333L4.49333 2.51333C3.40666 2.56 2.56 3.40667 2.50666 4.48667L2.34666 7.82C2.31333 8.57333 2.6 9.31333 3.13333 9.84667Z" fill="#475467"/>
<path d="M6.33332 8.5C5.13999 8.5 4.16666 7.52667 4.16666 6.33333C4.16666 5.14 5.13999 4.16667 6.33332 4.16667C7.52666 4.16667 8.49999 5.14 8.49999 6.33333C8.49999 7.52667 7.52666 8.5 6.33332 8.5ZM6.33332 5.16667C5.69332 5.16667 5.16666 5.69333 5.16666 6.33333C5.16666 6.97333 5.69332 7.5 6.33332 7.5C6.97332 7.5 7.49999 6.97333 7.49999 6.33333C7.49999 5.69333 6.97332 5.16667 6.33332 5.16667Z" fill="#475467"/>
</svg>
