<svg width="20" height="20" viewBox="0 0 20 20" fill="none" xmlns="http://www.w3.org/2000/svg">
<path d="M12.6253 8.14955C12.7354 8.30149 12.9117 8.39145 13.0994 8.39145H19.4142C19.5696 8.39145 19.7186 8.32967 19.8284 8.21972C19.9382 8.10977 19.9998 7.96068 19.9996 7.80527C20.0347 4.88365 18.0245 2.1281 15.2429 1.25841C14.9358 1.15838 14.6058 1.32593 14.5053 1.63282L12.543 7.62378C12.4846 7.80211 12.5152 7.99764 12.6253 8.14955ZM15.4269 2.5808C17.3034 3.40994 18.5882 5.17816 18.7984 7.22057H13.9072L15.4269 2.5808Z" fill="#344054"/>
<path d="M19.4123 9.40726H10.8026L13.4775 1.24041C13.5259 1.09268 13.5136 0.931801 13.4432 0.793208C13.3728 0.654615 13.2503 0.549665 13.1025 0.501542C8.1252 -1.19912 2.37602 1.58976 0.631413 6.54625C-1.80597 12.9519 3.13066 20.0666 9.99096 19.9968C15.3672 20.1175 20.1095 15.3808 19.9978 10.0044C20.0038 9.67746 19.7402 9.40675 19.4123 9.40726ZM4.91063 2.80388C6.98418 1.3148 9.70211 0.817875 12.1762 1.45195L9.62733 9.23365C7.97205 8.62444 3.54308 6.99438 1.95084 6.40832C2.59385 4.9658 3.60838 3.72786 4.91063 2.80388ZM1.18739 10.0044C1.18739 9.15197 1.30775 8.3144 1.54583 7.50692L9.40935 10.4011V18.8062C4.90739 18.5918 1.09594 14.5222 1.18739 10.0044ZM16.2437 16.2424C14.7136 17.7728 12.7205 18.6717 10.5802 18.808V10.5781H18.8088C18.6723 12.7186 17.7736 14.7122 16.2437 16.2424Z" fill="#344054"/>
</svg>
