<svg width="20" height="20" viewBox="0 0 20 20" fill="none" xmlns="http://www.w3.org/2000/svg">
<path d="M10 18.9584C5.05835 18.9584 1.04169 14.9417 1.04169 10C1.04169 5.05835 5.05835 1.04169 10 1.04169C14.9417 1.04169 18.9584 5.05835 18.9584 10C18.9584 14.9417 14.9417 18.9584 10 18.9584ZM10 2.29169C5.75002 2.29169 2.29169 5.75002 2.29169 10C2.29169 14.25 5.75002 17.7084 10 17.7084C14.25 17.7084 17.7084 14.25 17.7084 10C17.7084 5.75002 14.25 2.29169 10 2.29169Z" fill="#667085"/>
<path d="M8.75002 13.9584C7.25835 13.9584 6.04169 12.7417 6.04169 11.25C6.04169 8.37502 8.37502 6.04169 11.25 6.04169C12.7417 6.04169 13.9584 7.25835 13.9584 8.75002C13.9584 11.625 11.625 13.9584 8.75002 13.9584ZM11.25 7.29169C9.06669 7.29169 7.29169 9.06669 7.29169 11.25C7.29169 12.05 7.95002 12.7084 8.75002 12.7084C10.9334 12.7084 12.7084 10.9334 12.7084 8.75002C12.7084 7.95002 12.05 7.29169 11.25 7.29169Z" fill="#667085"/>
</svg>
