<svg width="36" height="36" viewBox="0 0 36 36" fill="none" xmlns="http://www.w3.org/2000/svg">
<circle opacity="0.16" cx="18" cy="18" r="18" fill="#FF8D29"/>
<path d="M10.9688 14.2188V25.5313C10.9688 25.7901 11.1786 26 11.4375 26H24.5624C24.8213 26 25.0312 25.7901 25.0312 25.5313V14.2188C25.0312 13.9599 24.8213 13.7501 24.5624 13.7501H21.3733L14.9869 10.0629C14.7627 9.93341 14.476 10.0103 14.3466 10.2345L12.4716 13.482C12.4229 13.5664 12.4034 13.6597 12.41 13.7501H11.4375C11.1786 13.7501 10.9688 13.9599 10.9688 14.2188ZM14.9241 11.1091L20.6074 14.3904L19.3533 16.5626H18.7447L16.3597 15.1856C17.0348 15.5751 17.8949 15.3385 18.2804 14.6707C18.669 13.9977 18.4389 13.1384 17.7657 12.7498C17.0926 12.3612 16.2334 12.5913 15.8448 13.2645C15.4563 13.9373 15.686 14.7963 16.3591 15.1852L13.5178 13.5448L14.9241 11.1091ZM16.6567 13.7332C16.7859 13.5094 17.0722 13.4318 17.297 13.5617C17.5213 13.6912 17.5981 13.9776 17.4686 14.202C17.3393 14.4258 17.0521 14.5028 16.8282 14.3736C16.6039 14.244 16.5271 13.9577 16.6567 13.7332ZM11.9062 14.6876H13.6221L16.8697 16.5626H14.25C13.9911 16.5626 13.7812 16.7724 13.7812 17.0313C13.7812 17.2902 13.9911 17.5 14.25 17.5H21.7499C22.0088 17.5 22.2187 17.2902 22.2187 17.0313C22.2187 16.7724 22.0088 16.5626 21.7499 16.5626H20.4358L21.5183 14.6876H24.0937V25.0625H11.9062V14.6876Z" fill="#FF8D29"/>
<path d="M19.1719 19.1719C18.7167 19.1719 18.3149 19.348 18 19.6832C17.685 19.348 17.2833 19.1719 16.8281 19.1719C15.9082 19.1719 15.1875 19.8936 15.1875 20.8149C15.1875 21.7892 15.9913 22.4154 17.1037 23.2821C17.2965 23.4323 17.4958 23.5876 17.7072 23.7567C17.7928 23.8252 17.8964 23.8594 18 23.8594C18.1036 23.8594 18.2072 23.8252 18.2928 23.7567C18.5041 23.5876 18.7035 23.4323 18.8963 23.2821C20.0087 22.4154 20.8125 21.7892 20.8125 20.8149C20.8125 19.8936 20.0918 19.1719 19.1719 19.1719ZM18.3201 22.5426C18.2157 22.6239 18.1094 22.7067 18 22.7927C17.8906 22.7067 17.7843 22.6239 17.6799 22.5426C16.6582 21.7465 16.125 21.3082 16.125 20.8149C16.125 20.4643 16.3666 20.1094 16.8281 20.1094C17.338 20.1094 17.5282 20.6426 17.5515 20.7144C17.6088 20.9157 17.7905 21.0546 18 21.0546C18.2095 21.0546 18.3912 20.9157 18.4486 20.7144C18.4718 20.6427 18.662 20.1094 19.1719 20.1094C19.6335 20.1094 19.875 20.4643 19.875 20.8149C19.875 21.3082 19.3418 21.7465 18.3201 22.5426Z" fill="#FF8D29"/>
</svg>
