<svg width="18" height="20" viewBox="0 0 18 20" fill="none" xmlns="http://www.w3.org/2000/svg">
<path d="M0.210938 5.27352V19.4141C0.210938 19.7377 0.47328 20 0.796872 20H17.203C17.5266 20 17.789 19.7377 17.789 19.4141V5.27352C17.789 4.94993 17.5266 4.68759 17.203 4.68759H13.2166L5.23364 0.0786309C4.95337 -0.0832431 4.59501 0.0128501 4.43326 0.293083L2.08952 4.35255C2.02862 4.45806 2.00429 4.57462 2.01253 4.68759H0.796872C0.473241 4.68759 0.210938 4.94993 0.210938 5.27352ZM5.15513 1.38644L12.2592 5.48797L10.6916 8.20319H9.93084L6.94969 6.48203C7.79355 6.9689 8.86862 6.67316 9.35053 5.8384C9.83627 4.99712 9.54862 3.92302 8.70714 3.4372C7.86578 2.95147 6.79176 3.23912 6.30594 4.0806C5.8204 4.92157 6.10754 5.99543 6.94887 6.48152L3.39729 4.43103L5.15513 1.38644ZM7.32082 4.66653C7.48238 4.38673 7.84023 4.28978 8.1212 4.45208C8.40167 4.61396 8.49761 4.97196 8.33569 5.25247C8.17417 5.53231 7.81507 5.62844 7.53531 5.46696C7.25484 5.30505 7.15887 4.94708 7.32082 4.66653ZM1.38281 5.85946H3.52768L7.58714 8.20319H4.31248C3.98888 8.20319 3.72654 8.46554 3.72654 8.78913C3.72654 9.11272 3.98888 9.37506 4.31248 9.37506H13.6874C14.011 9.37506 14.2734 9.11272 14.2734 8.78913C14.2734 8.46554 14.011 8.20319 13.6874 8.20319H12.0447L13.3979 5.85946H16.6171V18.8281H1.38281V5.85946Z" fill="#344054"/>
<path d="M10.4648 11.4649C9.89587 11.4649 9.39365 11.685 8.99998 12.104C8.60631 11.685 8.10409 11.4649 7.53514 11.4649C6.38519 11.4649 5.48438 12.367 5.48438 13.5186C5.48438 14.7365 6.4891 15.5192 7.8796 16.6026C8.12061 16.7904 8.36979 16.9845 8.63397 17.1959C8.74096 17.2815 8.87049 17.3243 8.99998 17.3243C9.12947 17.3243 9.259 17.2815 9.36599 17.1959C9.63017 16.9845 9.87935 16.7904 10.1204 16.6026C11.5109 15.5192 12.5156 14.7365 12.5156 13.5186C12.5156 12.367 11.6148 11.4649 10.4648 11.4649ZM9.40013 15.6782C9.26963 15.7799 9.13674 15.8834 9.00002 15.9908C8.8633 15.8834 8.73041 15.7799 8.5999 15.6782C7.32276 14.6832 6.65628 14.1352 6.65628 13.5186C6.65628 13.0804 6.95819 12.6368 7.53518 12.6368C8.17248 12.6368 8.41026 13.3033 8.43932 13.393C8.51104 13.6446 8.73818 13.8182 9.00002 13.8182C9.26181 13.8182 9.489 13.6446 9.56072 13.393C9.58978 13.3033 9.82755 12.6368 10.4649 12.6368C11.0418 12.6368 11.3438 13.0804 11.3438 13.5186C11.3437 14.1352 10.6773 14.6832 9.40013 15.6782Z" fill="#344054"/>
</svg>
