<svg width="32" height="32" viewBox="0 0 32 32" fill="none" xmlns="http://www.w3.org/2000/svg">
<circle opacity="0.1" cx="16" cy="16" r="16" fill="#0FC393"/>
<path d="M8.96881 12.2188V23.5313C8.96881 23.7901 9.17868 24 9.43756 24H22.5625C22.8214 24 23.0312 23.7901 23.0312 23.5313V12.2188C23.0312 11.9599 22.8214 11.7501 22.5625 11.7501H19.3733L12.987 8.0629C12.7628 7.93341 12.4761 8.01028 12.3467 8.23447L10.4717 11.482C10.423 11.5664 10.4035 11.6597 10.4101 11.7501H9.43756C9.17865 11.7501 8.96881 11.9599 8.96881 12.2188ZM12.9242 9.10915L18.6074 12.3904L17.3533 14.5626H16.7447L14.3598 13.1856C15.0349 13.5751 15.895 13.3385 16.2805 12.6707C16.6691 11.9977 16.439 11.1384 15.7658 10.7498C15.0927 10.3612 14.2335 10.5913 13.8448 11.2645C13.4564 11.9373 13.6861 12.7963 14.3592 13.1852L11.5179 11.5448L12.9242 9.10915ZM14.6567 11.7332C14.786 11.5094 15.0722 11.4318 15.297 11.5617C15.5214 11.6912 15.5981 11.9776 15.4686 12.202C15.3394 12.4258 15.0521 12.5028 14.8283 12.3736C14.6039 12.244 14.5272 11.9577 14.6567 11.7332ZM9.90631 12.6876H11.6222L14.8698 14.5626H12.25C11.9912 14.5626 11.7813 14.7724 11.7813 15.0313C11.7813 15.2902 11.9912 15.5 12.25 15.5H19.75C20.0089 15.5 20.2187 15.2902 20.2187 15.0313C20.2187 14.7724 20.0089 14.5626 19.75 14.5626H18.4358L19.5184 12.6876H22.0937V23.0625H9.90631V12.6876Z" fill="#0FC393"/>
<path d="M17.1719 17.1719C16.7167 17.1719 16.3149 17.348 16 17.6832C15.685 17.348 15.2833 17.1719 14.8281 17.1719C13.9082 17.1719 13.1875 17.8936 13.1875 18.8149C13.1875 19.7892 13.9913 20.4154 15.1037 21.2821C15.2965 21.4323 15.4958 21.5876 15.7072 21.7567C15.7928 21.8252 15.8964 21.8594 16 21.8594C16.1036 21.8594 16.2072 21.8252 16.2928 21.7567C16.5041 21.5876 16.7035 21.4323 16.8963 21.2821C18.0087 20.4154 18.8125 19.7892 18.8125 18.8149C18.8125 17.8936 18.0918 17.1719 17.1719 17.1719ZM16.3201 20.5425C16.2157 20.6239 16.1094 20.7067 16 20.7926C15.8906 20.7067 15.7843 20.6239 15.6799 20.5425C14.6582 19.7465 14.125 19.3082 14.125 18.8149C14.125 18.4643 14.3666 18.1094 14.8281 18.1094C15.338 18.1094 15.5282 18.6426 15.5515 18.7144C15.6088 18.9156 15.7905 19.0546 16 19.0546C16.2095 19.0546 16.3912 18.9156 16.4486 18.7144C16.4718 18.6426 16.662 18.1094 17.1719 18.1094C17.6335 18.1094 17.875 18.4643 17.875 18.8149C17.875 19.3082 17.3418 19.7465 16.3201 20.5425Z" fill="#0FC393"/>
</svg>
