<svg width="48" height="32" viewBox="0 0 48 32" fill="none" xmlns="http://www.w3.org/2000/svg">
<rect width="48" height="32" rx="16" fill="#FF805D"/>
<path d="M18.6167 22.2667C18.1083 22.2667 17.6333 22.0917 17.2917 21.7667C16.8583 21.3583 16.65 20.7417 16.725 20.075L17.0333 17.375C17.0917 16.8667 17.4 16.1917 17.7583 15.825L24.6 8.58332C26.3083 6.77499 28.0917 6.72499 29.9 8.43332C31.7083 10.1417 31.7583 11.925 30.05 13.7333L23.2083 20.975C22.8583 21.35 22.2083 21.7 21.7 21.7833L19.0167 22.2417C18.875 22.25 18.75 22.2667 18.6167 22.2667ZM27.275 8.42499C26.6333 8.42499 26.075 8.82499 25.5083 9.42499L18.6667 16.675C18.5 16.85 18.3083 17.2667 18.275 17.5083L17.9667 20.2083C17.9333 20.4833 18 20.7083 18.15 20.85C18.3 20.9917 18.525 21.0417 18.8 21L21.4833 20.5417C21.725 20.5 22.125 20.2833 22.2917 20.1083L29.1333 12.8667C30.1667 11.7667 30.5417 10.75 29.0333 9.33332C28.3667 8.69166 27.7917 8.42499 27.275 8.42499Z" fill="white"/>
<path d="M28.45 15.125C28.4333 15.125 28.4083 15.125 28.3916 15.125C25.7916 14.8667 23.7 12.8917 23.3 10.3083C23.25 9.96667 23.4833 9.65001 23.825 9.59167C24.1666 9.54167 24.4833 9.77501 24.5416 10.1167C24.8583 12.1333 26.4916 13.6833 28.525 13.8833C28.8666 13.9167 29.1166 14.225 29.0833 14.5667C29.0416 14.8833 28.7666 15.125 28.45 15.125Z" fill="white"/>
<path d="M31.5 24.9583H16.5C16.1583 24.9583 15.875 24.675 15.875 24.3333C15.875 23.9917 16.1583 23.7083 16.5 23.7083H31.5C31.8417 23.7083 32.125 23.9917 32.125 24.3333C32.125 24.675 31.8417 24.9583 31.5 24.9583Z" fill="white"/>
</svg>
