<svg width="36" height="36" viewBox="0 0 36 36" fill="none" xmlns="http://www.w3.org/2000/svg">
<circle opacity="0.16" cx="18" cy="18" r="18" fill="#0FC393"/>
<path d="M17.3018 21.1721C17.3904 21.2606 17.5105 21.3104 17.6359 21.3104C17.7611 21.3104 17.8813 21.2607 17.9699 21.1721L19.6565 19.4855C19.8411 19.3009 19.8411 19.0018 19.6565 18.8173C19.4721 18.6328 19.1729 18.6328 18.9884 18.8173L17.6359 20.1698L17.0192 19.5531C16.8346 19.3687 16.5356 19.3687 16.351 19.5531C16.1665 19.7375 16.1665 20.0367 16.351 20.2213L17.3018 21.1721Z" fill="#0FC393"/>
<path d="M18.0039 23.7451C20.0719 23.7451 21.7543 22.0626 21.7543 19.9946C21.7543 17.9266 20.0719 16.2443 18.0039 16.2443C15.9358 16.2443 14.2534 17.9266 14.2534 19.9946C14.2534 22.0626 15.9359 23.7451 18.0039 23.7451ZM18.0039 17.1891C19.5509 17.1891 20.8094 18.4476 20.8094 19.9946C20.8094 21.5416 19.5509 22.8003 18.0039 22.8003C16.4569 22.8003 15.1982 21.5416 15.1982 19.9946C15.1982 18.4476 16.4569 17.1891 18.0039 17.1891Z" fill="#0FC393"/>
<path d="M24.292 11.006H23.4303V10.4724C23.4303 10.2115 23.2188 10 22.9579 10C22.697 10 22.4855 10.2115 22.4855 10.4724V11.006H21.5571V10.4724C21.5571 10.2115 21.3456 10 21.0846 10C20.8237 10 20.6122 10.2115 20.6122 10.4724V11.006H15.3954V10.4724C15.3954 10.2115 15.1838 10 14.9229 10C14.662 10 14.4504 10.2115 14.4504 10.4724V11.006H13.5221V10.4724C13.5221 10.2115 13.3105 10 13.0496 10C12.7887 10 12.5771 10.2115 12.5771 10.4724V11.006H11.7153C10.8729 11.006 10.1875 11.6914 10.1875 12.5339V24.4722C10.1875 25.3146 10.8729 26 11.7153 26H24.292C25.1345 26 25.8198 25.3146 25.8198 24.4722V12.5339C25.8198 11.6914 25.1344 11.006 24.292 11.006ZM24.8749 24.4722C24.8749 24.7936 24.6134 25.0552 24.292 25.0552H11.7153C11.3939 25.0552 11.1323 24.7936 11.1323 24.4722V14.9343H24.8749V24.4722ZM11.1323 12.5339C11.1323 12.2124 11.3939 11.9509 11.7153 11.9509H12.5771V12.4845C12.5771 12.7454 12.7887 12.9569 13.0497 12.9569C13.3105 12.9569 13.5221 12.7454 13.5221 12.4845V11.9509H14.4504V12.4845C14.4504 12.7454 14.662 12.9569 14.923 12.9569C15.1838 12.9569 15.3954 12.7454 15.3954 12.4845V11.9509H20.6122V12.4845C20.6122 12.7454 20.8237 12.9569 21.0847 12.9569C21.3456 12.9569 21.5571 12.7454 21.5571 12.4845V11.9509H22.4855V12.4845C22.4855 12.7454 22.697 12.9569 22.9579 12.9569C23.2189 12.9569 23.4304 12.7454 23.4304 12.4845V11.9509H24.292C24.6134 11.9509 24.875 12.2124 24.875 12.5339V13.9894H11.1323V12.5339Z" fill="#0FC393"/>
</svg>
