<svg width="20" height="20" viewBox="0 0 20 20" fill="none" xmlns="http://www.w3.org/2000/svg">
<path d="M9.1273 13.9652C9.23808 14.0758 9.38822 14.138 9.54493 14.138C9.70148 14.138 9.85163 14.0759 9.96241 13.9652L12.0707 11.8568C12.3014 11.6261 12.3014 11.2523 12.0707 11.0216C11.8402 10.791 11.4662 10.791 11.2356 11.0216L9.54493 12.7123L8.77406 11.9414C8.54334 11.7108 8.1695 11.7108 7.93879 11.9414C7.70823 12.1719 7.70823 12.5459 7.93879 12.7766L9.1273 13.9652Z" fill="#344054"/>
<path d="M10.0048 17.1814C12.5898 17.1814 14.6927 15.0783 14.6927 12.4933C14.6927 9.90829 12.5898 7.80533 10.0048 7.80533C7.41962 7.80533 5.31665 9.90829 5.31665 12.4933C5.31665 15.0783 7.41977 17.1814 10.0048 17.1814ZM10.0048 8.98636C11.9385 8.98636 13.5117 10.5595 13.5117 12.4933C13.5117 14.427 11.9385 16.0004 10.0048 16.0004C8.07101 16.0004 6.49768 14.427 6.49768 12.4933C6.49768 10.5595 8.07101 8.98636 10.0048 8.98636Z" fill="#344054"/>
<path d="M17.865 1.25748H16.7879V0.590515C16.7879 0.264435 16.5234 0 16.1974 0C15.8713 0 15.6068 0.264435 15.6068 0.590515V1.25748H14.4464V0.590515C14.4464 0.264435 14.182 0 13.8557 0C13.5297 0 13.2652 0.264435 13.2652 0.590515V1.25748H6.74423V0.590515C6.74423 0.264435 6.4798 0 6.15356 0C5.82748 0 5.56305 0.264435 5.56305 0.590515V1.25748H4.40262V0.590515C4.40262 0.264435 4.13818 0 3.81195 0C3.48587 0 3.22144 0.264435 3.22144 0.590515V1.25748H2.14417C1.09116 1.25748 0.234375 2.11426 0.234375 3.16742V18.0902C0.234375 19.1432 1.09116 20 2.14417 20H17.865C18.9182 20 19.7748 19.1432 19.7748 18.0902V3.16742C19.7748 2.11426 18.918 1.25748 17.865 1.25748ZM18.5936 18.0902C18.5936 18.492 18.2668 18.819 17.865 18.819H2.14417C1.7424 18.819 1.41541 18.492 1.41541 18.0902V6.16791H18.5936V18.0902ZM1.41541 3.16742C1.41541 2.7655 1.7424 2.43866 2.14417 2.43866H3.22144V3.10562C3.22144 3.4317 3.48587 3.69614 3.8121 3.69614C4.13818 3.69614 4.40262 3.4317 4.40262 3.10562V2.43866H5.56305V3.10562C5.56305 3.4317 5.82748 3.69614 6.15372 3.69614C6.4798 3.69614 6.74423 3.4317 6.74423 3.10562V2.43866H13.2652V3.10562C13.2652 3.4317 13.5297 3.69614 13.8559 3.69614C14.182 3.69614 14.4464 3.4317 14.4464 3.10562V2.43866H15.6068V3.10562C15.6068 3.4317 15.8713 3.69614 16.1974 3.69614C16.5236 3.69614 16.788 3.4317 16.788 3.10562V2.43866H17.865C18.2668 2.43866 18.5938 2.7655 18.5938 3.16742V4.98672H1.41541V3.16742Z" fill="#344054"/>
</svg>
