<svg width="20" height="20" viewBox="0 0 20 20" fill="none" xmlns="http://www.w3.org/2000/svg">
<path d="M19.6864 9.45465L14.9577 5.96625C14.5744 5.68344 14.0312 5.9582 14.0312 6.4341V8.17828H12.8683V1.74418C12.8684 0.782461 12.0859 0 11.1242 0H1.82182C0.861895 0 0.0776367 0.782305 0.0776367 1.74418C0.0776367 2.27941 0.0776367 14.415 0.0776367 15.1529C0.0776367 15.7374 0.367988 16.28 0.854356 16.6042L5.50553 19.705C6.66342 20.4769 8.21725 19.6436 8.21725 18.2537V17.5195H11.1242C12.086 17.5195 12.8684 16.737 12.8684 15.7753V11.6667H14.0312V13.4109C14.0312 13.8902 14.5774 14.1594 14.9578 13.8787L19.6865 10.3904C20.0012 10.1582 20.0012 9.68684 19.6864 9.45465ZM6.15053 18.7374L1.49936 15.6366C1.33721 15.5286 1.24045 15.3477 1.24045 15.1529C1.24045 14.988 1.24045 3.92086 1.24045 1.74414C1.24045 1.6725 1.25408 1.60418 1.27787 1.54078L6.63611 4.21992C6.82693 4.31531 7.05439 4.49141 7.05439 4.7884V18.2537H7.05443C7.05443 18.7185 6.53752 18.9955 6.15053 18.7374ZM11.7056 15.7753C11.7056 16.0959 11.4448 16.3567 11.1242 16.3567H8.21725V4.78844C8.21725 4.1034 7.83049 3.51711 7.15619 3.17992L3.12189 1.16281H11.1242C11.4448 1.16281 11.7056 1.42363 11.7056 1.74422V8.17836H9.96143C9.64033 8.17836 9.38002 8.43867 9.38002 8.75977V11.0854C9.38002 11.4064 9.64033 11.6668 9.96143 11.6668H11.7056V15.7753ZM15.194 12.2595V11.0853C15.194 10.7642 14.9337 10.5039 14.6126 10.5039H10.5428V9.34109H14.6126C14.9337 9.34109 15.194 9.08078 15.194 8.75969V7.58555L18.3619 9.92254L15.194 12.2595Z" fill="#344054"/>
<path d="M5.31017 8.17831C4.98907 8.17831 4.72876 8.43863 4.72876 8.75972V11.0853C4.72876 11.4064 4.98907 11.6667 5.31017 11.6667C5.63126 11.6667 5.89157 11.4064 5.89157 11.0853V8.75972C5.89153 8.43863 5.63122 8.17831 5.31017 8.17831Z" fill="#344054"/>
</svg>
