<svg width="20" height="20" viewBox="0 0 20 20" fill="none" xmlns="http://www.w3.org/2000/svg">
<path d="M18.3333 6.04166H13.3333C12.9916 6.04166 12.7083 5.75832 12.7083 5.41666C12.7083 5.07499 12.9916 4.79166 13.3333 4.79166H18.3333C18.6749 4.79166 18.9583 5.07499 18.9583 5.41666C18.9583 5.75832 18.6749 6.04166 18.3333 6.04166Z" fill="#475467"/>
<path d="M5.00008 6.04166H1.66675C1.32508 6.04166 1.04175 5.75832 1.04175 5.41666C1.04175 5.07499 1.32508 4.79166 1.66675 4.79166H5.00008C5.34175 4.79166 5.62508 5.07499 5.62508 5.41666C5.62508 5.75832 5.34175 6.04166 5.00008 6.04166Z" fill="#475467"/>
<path d="M8.33341 8.95833C6.38341 8.95833 4.79175 7.36667 4.79175 5.41667C4.79175 3.46667 6.38341 1.875 8.33341 1.875C10.2834 1.875 11.8751 3.46667 11.8751 5.41667C11.8751 7.36667 10.2834 8.95833 8.33341 8.95833ZM8.33341 3.125C7.06675 3.125 6.04175 4.15 6.04175 5.41667C6.04175 6.68333 7.06675 7.70833 8.33341 7.70833C9.60008 7.70833 10.6251 6.68333 10.6251 5.41667C10.6251 4.15 9.60008 3.125 8.33341 3.125Z" fill="#475467"/>
<path d="M18.3333 15.2083H15C14.6583 15.2083 14.375 14.925 14.375 14.5833C14.375 14.2417 14.6583 13.9583 15 13.9583H18.3333C18.675 13.9583 18.9583 14.2417 18.9583 14.5833C18.9583 14.925 18.675 15.2083 18.3333 15.2083Z" fill="#475467"/>
<path d="M6.66675 15.2083H1.66675C1.32508 15.2083 1.04175 14.925 1.04175 14.5833C1.04175 14.2417 1.32508 13.9583 1.66675 13.9583H6.66675C7.00841 13.9583 7.29175 14.2417 7.29175 14.5833C7.29175 14.925 7.00841 15.2083 6.66675 15.2083Z" fill="#475467"/>
<path d="M11.6667 18.125C9.71667 18.125 8.125 16.5333 8.125 14.5833C8.125 12.6333 9.71667 11.0417 11.6667 11.0417C13.6167 11.0417 15.2083 12.6333 15.2083 14.5833C15.2083 16.5333 13.6167 18.125 11.6667 18.125ZM11.6667 12.2917C10.4 12.2917 9.375 13.3167 9.375 14.5833C9.375 15.85 10.4 16.875 11.6667 16.875C12.9333 16.875 13.9583 15.85 13.9583 14.5833C13.9583 13.3167 12.9333 12.2917 11.6667 12.2917Z" fill="#475467"/>
</svg>
