<svg width="20" height="20" viewBox="0 0 20 20" fill="none" xmlns="http://www.w3.org/2000/svg">
<path d="M13.7779 6.20289H17.2845C18.448 6.20289 19.3946 5.25613 19.3946 4.09242C19.3946 2.97047 18.5148 2.0502 17.4089 1.98555C17.3441 0.879727 16.4241 0 15.3025 0C14.1389 0 13.1924 0.946719 13.1924 2.11043V5.61695C13.1924 5.94055 13.4545 6.20289 13.7779 6.20289ZM14.3634 2.11043C14.3634 1.59289 14.7846 1.17188 15.3025 1.17188C15.8203 1.17188 16.2416 1.59293 16.2416 2.11047V2.56785C16.2416 2.89145 16.5038 3.15379 16.8271 3.15379H17.2845C17.8023 3.15379 18.2237 3.57484 18.2237 4.09238C18.2237 4.60992 17.8024 5.03098 17.2845 5.03098H14.3634V2.11043Z" fill="#344054"/>
<path d="M8.695 2.93094C8.38586 2.62188 7.85758 2.74906 7.72375 3.16629C6.29145 7.63008 3.28832 10.9223 3.18492 11.0345L1.14949 13.0699C1.03961 13.1798 0.977852 13.3289 0.977852 13.4844C0.977852 13.6398 1.03961 13.789 1.14949 13.8989L1.70113 14.4504L1.27688 14.8748C0.84336 15.3082 0.604923 15.8844 0.60547 16.4964C0.604337 17.7741 1.64035 18.7889 2.89805 18.7889C3.48516 18.7889 4.07246 18.5654 4.51945 18.1187L4.94441 17.6934L5.49649 18.2454C5.72508 18.4739 6.09551 18.474 6.32414 18.2454L7.95668 16.6128L11.1727 19.8286C11.4013 20.0572 11.7717 20.0572 12.0003 19.8286L12.5807 19.2482C12.9787 18.8503 13.1979 18.3212 13.1979 17.7582C13.1979 17.1953 12.9787 16.6662 12.5807 16.2682L10.7145 14.4021C12.1041 13.4681 14.0209 12.3795 16.2281 11.6713C16.6447 11.5377 16.773 11.0088 16.4632 10.6988L8.695 2.93094ZM3.69168 17.2897C3.25422 17.7271 2.54199 17.727 2.10461 17.29C1.66719 16.8522 1.66574 16.1424 2.10449 15.7039L2.52945 15.2788C3.10481 15.854 2.76379 15.513 4.11602 16.8651L3.69168 17.2897ZM5.91031 17.0025C5.7809 16.8731 2.53563 13.6284 2.39164 13.4844L3.60984 12.2662L7.12844 15.7844L5.91031 17.0025ZM11.7531 17.0972C11.9296 17.2738 12.0269 17.5085 12.0269 17.7582C12.0269 18.1943 11.7674 18.4048 11.5865 18.5858L8.81602 15.8154C9.04648 15.6242 9.35922 15.3741 9.74395 15.0881L11.7531 17.0972ZM7.98293 14.9823L4.41176 11.4116C5.24133 10.4294 7.24738 7.84203 8.52738 4.42L14.9744 10.8667C11.5521 12.1469 8.96461 14.1532 7.98293 14.9823Z" fill="#344054"/>
<path d="M11.0178 3.05016C11.3412 3.05016 11.6033 2.78781 11.6033 2.46422V0.613281C11.6033 0.289687 11.3412 0.0273438 11.0178 0.0273438C10.6945 0.0273438 10.4324 0.289687 10.4324 0.613281V2.46422C10.4324 2.78781 10.6945 3.05016 11.0178 3.05016Z" fill="#344054"/>
<path d="M18.654 7.79086H16.803C16.4796 7.79086 16.2175 8.0532 16.2175 8.3768C16.2175 8.70039 16.4797 8.96273 16.803 8.96273H18.654C18.9774 8.96273 19.2395 8.70039 19.2395 8.3768C19.2395 8.0532 18.9774 7.79086 18.654 7.79086Z" fill="#344054"/>
</svg>
