<svg width="20" height="20" viewBox="0 0 20 20" fill="none" xmlns="http://www.w3.org/2000/svg">
<path d="M18.3334 18.9583H1.66675C1.32508 18.9583 1.04175 18.675 1.04175 18.3333C1.04175 17.9917 1.32508 17.7083 1.66675 17.7083H18.3334C18.6751 17.7083 18.9584 17.9917 18.9584 18.3333C18.9584 18.675 18.6751 18.9583 18.3334 18.9583Z" fill="#475467"/>
<path d="M3.0835 18.3333H1.8335L1.87516 8.3083C1.87516 7.59997 2.20016 6.94166 2.7585 6.50832L8.59183 1.96665C9.41683 1.32498 10.5752 1.32498 11.4085 1.96665L17.2418 6.49998C17.7918 6.93332 18.1252 7.6083 18.1252 8.3083V18.3333H16.8752V8.31664C16.8752 7.99998 16.7252 7.69165 16.4752 7.49165L10.6418 2.95832C10.2668 2.66665 9.74183 2.66665 9.35849 2.95832L3.52516 7.49999C3.27516 7.69166 3.12516 7.99998 3.12516 8.31664L3.0835 18.3333Z" fill="#475467"/>
<path d="M12.0834 18.9583H7.91675C7.57508 18.9583 7.29175 18.675 7.29175 18.3333V15.4167C7.29175 14.3833 8.13341 13.5417 9.16675 13.5417H10.8334C11.8667 13.5417 12.7084 14.3833 12.7084 15.4167V18.3333C12.7084 18.675 12.4251 18.9583 12.0834 18.9583ZM8.54175 17.7083H11.4584V15.4167C11.4584 15.075 11.1751 14.7917 10.8334 14.7917H9.16675C8.82508 14.7917 8.54175 15.075 8.54175 15.4167V17.7083Z" fill="#475467"/>
<path d="M7.91675 12.0833H6.25008C5.45008 12.0833 4.79175 11.425 4.79175 10.625V9.37501C4.79175 8.57501 5.45008 7.91667 6.25008 7.91667H7.91675C8.71675 7.91667 9.37508 8.57501 9.37508 9.37501V10.625C9.37508 11.425 8.71675 12.0833 7.91675 12.0833ZM6.25008 9.16667C6.13341 9.16667 6.04175 9.25834 6.04175 9.37501V10.625C6.04175 10.7417 6.13341 10.8333 6.25008 10.8333H7.91675C8.03341 10.8333 8.12508 10.7417 8.12508 10.625V9.37501C8.12508 9.25834 8.03341 9.16667 7.91675 9.16667H6.25008Z" fill="#475467"/>
<path d="M13.75 12.0833H12.0833C11.2833 12.0833 10.625 11.425 10.625 10.625V9.37501C10.625 8.57501 11.2833 7.91667 12.0833 7.91667H13.75C14.55 7.91667 15.2083 8.57501 15.2083 9.37501V10.625C15.2083 11.425 14.55 12.0833 13.75 12.0833ZM12.0833 9.16667C11.9667 9.16667 11.875 9.25834 11.875 9.37501V10.625C11.875 10.7417 11.9667 10.8333 12.0833 10.8333H13.75C13.8667 10.8333 13.9583 10.7417 13.9583 10.625V9.37501C13.9583 9.25834 13.8667 9.16667 13.75 9.16667H12.0833Z" fill="#475467"/>
<path d="M15.8335 6.45833C15.4918 6.45833 15.2085 6.18334 15.2085 5.84167L15.1918 3.95833H12.1501C11.8085 3.95833 11.5251 3.67499 11.5251 3.33333C11.5251 2.99166 11.8085 2.70833 12.1501 2.70833H15.8168C16.1585 2.70833 16.4418 2.98332 16.4418 3.32499L16.4668 5.82499C16.4585 6.17499 16.1835 6.45833 15.8335 6.45833C15.8418 6.45833 15.8335 6.45833 15.8335 6.45833Z" fill="#475467"/>
</svg>
