<svg width="20" height="20" viewBox="0 0 20 20" fill="none" xmlns="http://www.w3.org/2000/svg">
<path d="M15 8.95833C14.6583 8.95833 14.375 8.675 14.375 8.33333V6.66666C14.375 4.04166 13.6333 2.29166 10 2.29166C6.36667 2.29166 5.625 4.04166 5.625 6.66666V8.33333C5.625 8.675 5.34167 8.95833 5 8.95833C4.65833 8.95833 4.375 8.675 4.375 8.33333V6.66666C4.375 4.25 4.95833 1.04166 10 1.04166C15.0417 1.04166 15.625 4.25 15.625 6.66666V8.33333C15.625 8.675 15.3417 8.95833 15 8.95833Z" fill="#475467"/>
<path d="M14.1667 18.9583H5.83342C2.15841 18.9583 1.04175 17.8417 1.04175 14.1667V12.5C1.04175 8.825 2.15841 7.70834 5.83342 7.70834H14.1667C17.8417 7.70834 18.9584 8.825 18.9584 12.5V14.1667C18.9584 17.8417 17.8417 18.9583 14.1667 18.9583ZM5.83342 8.95834C2.85008 8.95834 2.29175 9.525 2.29175 12.5V14.1667C2.29175 17.1417 2.85008 17.7083 5.83342 17.7083H14.1667C17.1501 17.7083 17.7084 17.1417 17.7084 14.1667V12.5C17.7084 9.525 17.1501 8.95834 14.1667 8.95834H5.83342Z" fill="#475467"/>
<path d="M6.66659 14.1667C6.55825 14.1667 6.44991 14.1417 6.34991 14.1C6.24158 14.0583 6.15826 14 6.07493 13.925C5.92493 13.7667 5.83325 13.5583 5.83325 13.3333C5.83325 13.225 5.85824 13.1167 5.89991 13.0167C5.94157 12.9083 5.99993 12.825 6.07493 12.7417C6.15826 12.6667 6.24158 12.6083 6.34991 12.5667C6.64991 12.4333 7.02491 12.5083 7.25824 12.7417C7.33324 12.825 7.3916 12.9167 7.43326 13.0167C7.47493 13.1167 7.49992 13.225 7.49992 13.3333C7.49992 13.55 7.40824 13.7667 7.25824 13.925C7.09991 14.075 6.88325 14.1667 6.66659 14.1667Z" fill="#475467"/>
<path d="M10.0001 14.1667C9.78341 14.1667 9.56676 14.075 9.40842 13.925C9.25842 13.7667 9.16675 13.5584 9.16675 13.3334C9.16675 13.225 9.1834 13.1167 9.2334 13.0167C9.27507 12.9167 9.33342 12.825 9.40842 12.7417C9.60009 12.55 9.89175 12.4584 10.1584 12.5167C10.2167 12.525 10.2668 12.5417 10.3168 12.5667C10.3668 12.5834 10.4167 12.6084 10.4667 12.6417C10.5084 12.6667 10.5501 12.7084 10.5917 12.7417C10.6667 12.825 10.7251 12.9167 10.7668 13.0167C10.8084 13.1167 10.8334 13.225 10.8334 13.3334C10.8334 13.5584 10.7417 13.7667 10.5917 13.925C10.5501 13.9584 10.5084 13.9917 10.4667 14.025C10.4167 14.0584 10.3668 14.0834 10.3168 14.1C10.2668 14.125 10.2167 14.1417 10.1584 14.15C10.1084 14.1584 10.0501 14.1667 10.0001 14.1667Z" fill="#475467"/>
<path d="M13.3333 14.1667C13.1083 14.1667 12.9 14.075 12.7417 13.925C12.6667 13.8417 12.6083 13.75 12.5667 13.65C12.525 13.55 12.5 13.4417 12.5 13.3334C12.5 13.1167 12.5917 12.9 12.7417 12.7417C12.7833 12.7084 12.825 12.675 12.8667 12.6417C12.9167 12.6084 12.9667 12.5834 13.0167 12.5667C13.0667 12.5417 13.1167 12.525 13.1667 12.5167C13.4417 12.4584 13.725 12.55 13.925 12.7417C14.075 12.9 14.1667 13.1084 14.1667 13.3334C14.1667 13.4417 14.1417 13.55 14.1 13.65C14.0583 13.7584 14 13.8417 13.925 13.925C13.7667 14.075 13.55 14.1667 13.3333 14.1667Z" fill="#475467"/>
</svg>
