<svg width="20" height="20" viewBox="0 0 20 20" fill="none" xmlns="http://www.w3.org/2000/svg">
<path d="M14.8917 18.225C14.6334 18.225 14.3751 18.1583 14.1417 18.0167L10.8001 16.0333C10.4501 16.025 10.1001 16 9.76673 15.95C9.54173 15.9167 9.35006 15.7667 9.26673 15.55C9.18339 15.3333 9.22506 15.1 9.37506 14.925C9.92506 14.2833 10.2084 13.5167 10.2084 12.7C10.2084 10.6833 8.4334 9.04166 6.25006 9.04166C5.4334 9.04166 4.65006 9.26669 3.99172 9.70002C3.80839 9.81669 3.58339 9.83335 3.38339 9.74168C3.19173 9.65001 3.05007 9.46666 3.02507 9.24999C3.00007 9.01666 2.9834 8.78334 2.9834 8.54168C2.9834 4.40834 6.56673 1.05002 10.9667 1.05002C15.3667 1.05002 18.9501 4.40834 18.9501 8.54168C18.9501 10.8083 17.9001 12.8917 16.0501 14.3167L16.3334 16.5834C16.4001 17.15 16.1501 17.6834 15.6751 17.9917C15.4417 18.1417 15.1667 18.225 14.8917 18.225ZM10.9584 14.775C11.0751 14.7667 11.1917 14.8 11.2917 14.8667L14.7834 16.9417C14.8751 17 14.9501 16.975 15.0001 16.9417C15.0417 16.9167 15.1084 16.85 15.0917 16.7334L14.7667 14.1C14.7417 13.8667 14.8417 13.6417 15.0251 13.5084C16.7251 12.3167 17.7001 10.5 17.7001 8.52499C17.7001 5.08333 14.6834 2.28334 10.9667 2.28334C7.39173 2.28334 4.45839 4.88337 4.24173 8.15003C4.86673 7.90837 5.54173 7.77502 6.24173 7.77502C9.11673 7.77502 11.4501 9.97499 11.4501 12.6833C11.4584 13.4167 11.2834 14.125 10.9584 14.775Z" fill="#344054"/>
<path d="M3.81648 18.9584C3.59981 18.9584 3.39147 18.9001 3.19981 18.7751C2.82481 18.5334 2.62481 18.1167 2.67481 17.6751L2.84148 16.3917C1.71648 15.475 1.0498 14.1167 1.0498 12.6917C1.0498 11.0667 1.89981 9.55006 3.32481 8.64172C4.18315 8.08339 5.1998 7.78342 6.25814 7.78342C9.13314 7.78342 11.4665 9.98338 11.4665 12.6917C11.4665 13.7917 11.0665 14.8751 10.3331 15.7334C9.39147 16.8751 7.98314 17.5417 6.43314 17.5917L4.39981 18.8001C4.21648 18.9084 4.01648 18.9584 3.81648 18.9584ZM6.24981 9.03342C5.43314 9.03342 4.6498 9.2584 3.99147 9.69173C2.9248 10.3751 2.29148 11.4917 2.29148 12.6917C2.29148 13.85 2.85815 14.9084 3.85815 15.5917C4.04981 15.7251 4.14981 15.95 4.12481 16.1834L3.94147 17.6084L5.93314 16.4251C6.03314 16.3667 6.14148 16.3334 6.24981 16.3334C7.47481 16.3334 8.63315 15.8084 9.36648 14.9167C9.91648 14.2667 10.2081 13.5 10.2081 12.6834C10.2081 10.675 8.43314 9.03342 6.24981 9.03342Z" fill="#344054"/>
</svg>
