<svg width="20" height="20" viewBox="0 0 20 20" fill="none" xmlns="http://www.w3.org/2000/svg">
<path d="M12.5001 10.7917H6.66675C6.32508 10.7917 6.04175 10.5083 6.04175 10.1667C6.04175 9.825 6.32508 9.54166 6.66675 9.54166H12.5001C12.8417 9.54166 13.1251 9.825 13.1251 10.1667C13.1251 10.5083 12.8417 10.7917 12.5001 10.7917Z" fill="#475467"/>
<path d="M10.3167 14.125H6.66675C6.32508 14.125 6.04175 13.8417 6.04175 13.5C6.04175 13.1583 6.32508 12.875 6.66675 12.875H10.3167C10.6584 12.875 10.9417 13.1583 10.9417 13.5C10.9417 13.8417 10.6584 14.125 10.3167 14.125Z" fill="#475467"/>
<path d="M11.6667 5.625H8.33341C7.53341 5.625 6.04175 5.625 6.04175 3.33333C6.04175 1.04167 7.53341 1.04167 8.33341 1.04167H11.6667C12.4667 1.04167 13.9584 1.04167 13.9584 3.33333C13.9584 4.13333 13.9584 5.625 11.6667 5.625ZM8.33341 2.29167C7.50841 2.29167 7.29175 2.29167 7.29175 3.33333C7.29175 4.375 7.50841 4.375 8.33341 4.375H11.6667C12.7084 4.375 12.7084 4.15833 12.7084 3.33333C12.7084 2.29167 12.4917 2.29167 11.6667 2.29167H8.33341Z" fill="#475467"/>
<path d="M12.5 18.9583H7.5C2.81667 18.9583 1.875 16.8083 1.875 13.3333V8.33333C1.875 4.53333 3.25 2.90833 6.63333 2.73333C6.96667 2.71667 7.275 2.975 7.29167 3.325C7.30833 3.675 7.04167 3.95833 6.7 3.975C4.33333 4.10833 3.125 4.81667 3.125 8.33333V13.3333C3.125 16.4167 3.73333 17.7083 7.5 17.7083H12.5C16.2667 17.7083 16.875 16.4167 16.875 13.3333V8.33333C16.875 4.81667 15.6667 4.10833 13.3 3.975C12.9583 3.95833 12.6917 3.65833 12.7083 3.31667C12.725 2.975 13.025 2.70833 13.3667 2.725C16.75 2.90833 18.125 4.53333 18.125 8.325V13.325C18.125 16.8083 17.1833 18.9583 12.5 18.9583Z" fill="#475467"/>
</svg>
