<svg width="20" height="20" viewBox="0 0 20 20" fill="none" xmlns="http://www.w3.org/2000/svg">
<path d="M18.0982 1.90172C15.5627 -0.633906 11.4369 -0.633906 8.90137 1.90172C7.23473 3.56836 6.62926 5.9698 7.21902 8.18254L0.190508 15.2111C0.0685547 15.333 0 15.4984 0 15.6709V19.3496C0 19.7088 0.291172 20 0.650313 20H4.3291C4.50156 20 4.66695 19.9314 4.78891 19.8095L5.70859 18.8898C5.83055 18.7678 5.89906 18.6024 5.89906 18.43V17.2409H7.08812C7.26059 17.2409 7.42598 17.1724 7.54793 17.0504L8.46766 16.1307C8.58961 16.0088 8.65812 15.8434 8.65812 15.6709V14.4818H9.84719C10.0196 14.4818 10.185 14.4133 10.307 14.2913L11.8173 12.781C14.0303 13.3709 16.4315 12.7653 18.0981 11.0987C20.6338 8.56313 20.6338 4.43738 18.0982 1.90172ZM17.1786 10.1789C15.7741 11.5835 13.728 12.0629 11.8387 11.43C11.6048 11.3516 11.3467 11.4123 11.1723 11.5867L9.57793 13.1811H8.00793C7.64879 13.1811 7.35762 13.4723 7.35762 13.8314V15.4014L6.81883 15.9402H5.24883C4.88969 15.9402 4.59852 16.2314 4.59852 16.5905V18.1605L4.0598 18.6993H1.30066V15.9402L8.4132 8.8277C8.58762 8.65328 8.64836 8.3952 8.57 8.16129C7.93715 6.27199 8.41652 4.2259 9.82102 2.82137C11.8495 0.79293 15.1501 0.792891 17.1786 2.82137C19.2071 4.84988 19.2071 8.15051 17.1786 10.1789Z" fill="#344054"/>
<path d="M16.2588 3.74113C15.2446 2.72683 13.5942 2.72683 12.58 3.74113C11.5658 4.75539 11.5658 6.40562 12.58 7.41992C13.5942 8.43418 15.2445 8.43422 16.2588 7.41992C17.2731 6.4057 17.2731 4.75543 16.2588 3.74113ZM15.3391 6.50019C14.832 7.00726 14.0069 7.00726 13.4997 6.50019C12.9926 5.99308 12.9926 5.16793 13.4997 4.66078C14.0068 4.15371 14.832 4.15367 15.3391 4.66078C15.8462 5.16793 15.8462 5.99308 15.3391 6.50019Z" fill="#344054"/>
</svg>
