<svg width="20" height="20" viewBox="0 0 20 20" fill="none" xmlns="http://www.w3.org/2000/svg">
<path d="M9.99992 18.9667C9.09159 18.9667 8.1916 18.7 7.48327 18.175L3.89992 15.5C2.94992 14.7917 2.20825 13.3167 2.20825 12.1333V5.94167C2.20825 4.65834 3.14993 3.29167 4.35827 2.84167L8.51659 1.28334C9.34159 0.97501 10.6416 0.97501 11.4666 1.28334L15.6333 2.84167C16.8416 3.29167 17.7833 4.65834 17.7833 5.94167V12.1333C17.7833 13.3167 17.0416 14.7917 16.0916 15.5L12.5083 18.175C11.8083 18.7 10.9083 18.9667 9.99992 18.9667ZM8.95826 2.45001L4.79993 4.00833C4.08327 4.275 3.45825 5.17501 3.45825 5.94167V12.1333C3.45825 12.925 4.0166 14.0333 4.6416 14.5L8.22492 17.175C9.18325 17.8917 10.8083 17.8917 11.7666 17.175L15.3499 14.5C15.9833 14.025 16.5333 12.9167 16.5333 12.1333V5.94167C16.5333 5.18334 15.9083 4.28333 15.1916 4.00833L11.0332 2.45001C10.4832 2.24167 9.51659 2.24167 8.95826 2.45001Z" fill="#344054"/>
<path d="M9.99984 9.72503C9.98318 9.72503 9.9665 9.72503 9.9415 9.72503C8.73317 9.69169 7.84985 8.76669 7.84985 7.64169C7.84985 6.49169 8.7915 5.55002 9.9415 5.55002C11.0915 5.55002 12.0332 6.49169 12.0332 7.64169C12.0248 8.77503 11.1415 9.69168 10.0165 9.73334C10.0082 9.72501 10.0082 9.72503 9.99984 9.72503ZM9.9415 6.80002C9.47484 6.80002 9.09985 7.17503 9.09985 7.64169C9.09985 8.10003 9.45819 8.46668 9.90819 8.48334C9.90819 8.48334 9.94984 8.48334 9.99984 8.48334C10.4415 8.45834 10.7832 8.09169 10.7832 7.64169C10.7915 7.17503 10.4082 6.80002 9.9415 6.80002Z" fill="#344054"/>
<path d="M9.99977 14.4583C9.2831 14.4583 8.5581 14.2667 7.99977 13.8917C7.44144 13.525 7.12476 12.9834 7.12476 12.4084C7.12476 11.8334 7.44144 11.2917 7.99977 10.9167C9.12477 10.1667 10.8831 10.175 11.9998 10.9167C12.5581 11.2833 12.8748 11.825 12.8748 12.4C12.8748 12.975 12.5581 13.5167 11.9998 13.8917C11.4414 14.2667 10.7164 14.4583 9.99977 14.4583ZM8.69143 11.95C8.48309 12.0833 8.36642 12.25 8.37476 12.4C8.37476 12.55 8.49143 12.7167 8.69143 12.85C9.39143 13.3167 10.6081 13.3167 11.3081 12.85C11.5164 12.7167 11.6331 12.55 11.6331 12.4C11.6331 12.25 11.5164 12.0833 11.3164 11.95C10.6164 11.4917 9.39143 11.4917 8.69143 11.95Z" fill="#344054"/>
</svg>
