<svg width="20" height="20" viewBox="0 0 20 20" fill="none" xmlns="http://www.w3.org/2000/svg">
<path d="M5.94157 15.8833H12.6082C15.2499 15.8833 17.3999 13.7333 17.3999 11.0917C17.3999 8.45 15.2499 6.3 12.6082 6.3H3.44157C3.0999 6.3 2.81657 6.58333 2.81657 6.925C2.81657 7.26667 3.0999 7.55 3.44157 7.55H12.6082C14.5582 7.55 16.1499 9.14167 16.1499 11.0917C16.1499 13.0417 14.5582 14.6333 12.6082 14.6333H5.94157C5.5999 14.6333 5.31657 14.9167 5.31657 15.2583C5.31657 15.6 5.59157 15.8833 5.94157 15.8833Z" fill="#475467"/>
<path d="M5.35829 9.63333C5.51662 9.63333 5.67495 9.575 5.79995 9.45C6.04162 9.20833 6.04162 8.80833 5.79995 8.56667L4.10829 6.875L5.79995 5.18333C6.04162 4.94167 6.04162 4.54167 5.79995 4.3C5.55828 4.05833 5.15828 4.05833 4.91662 4.3L2.78328 6.43333C2.54162 6.675 2.54162 7.075 2.78328 7.31667L4.91662 9.45C5.04162 9.575 5.19995 9.63333 5.35829 9.63333Z" fill="#475467"/>
</svg>
