<svg width="20" height="20" viewBox="0 0 20 20" fill="none" xmlns="http://www.w3.org/2000/svg">
<path d="M18.0859 0.736094C17.007 0.261406 15.592 0 14.1016 0C11.0515 0 8.24219 1.11996 8.24219 2.92969C8.24219 3.38246 8.24219 6.90289 8.24219 7.32598C7.66441 7.15773 7.06098 7.07031 6.44531 7.07031C4.72766 7.07031 3.10914 7.74906 1.88789 8.98156C0.670469 10.2102 0 11.8343 0 13.5547C0 17.1086 2.89137 20 6.44531 20C7.63129 20 8.77148 19.6813 9.76793 19.0845C10.8577 19.6691 12.4107 20 14.1016 20C15.592 20 17.007 19.7386 18.0859 19.2639C19.3202 18.7209 20 17.9418 20 17.0703C20 16.7054 20 3.30219 20 2.92969C20 2.05813 19.3202 1.2791 18.0859 0.736094ZM6.44531 18.8281C3.53754 18.8281 1.17188 16.4625 1.17188 13.5547C1.17188 10.6254 3.53754 8.24219 6.44531 8.24219C9.37461 8.24219 11.7578 10.6254 11.7578 13.5547C11.7578 16.4625 9.37461 18.8281 6.44531 18.8281ZM18.8281 17.0703C18.8281 17.787 16.9868 18.8281 14.1016 18.8281C12.8741 18.8281 11.7146 18.6314 10.8348 18.2867C10.8968 18.2297 10.9582 18.1718 11.0185 18.1121C11.5461 17.5893 11.9718 16.9936 12.2867 16.3485C12.8689 16.4383 13.477 16.4844 14.1016 16.4844C15.6423 16.4844 17.553 16.1849 18.8281 15.3508V17.0703ZM18.8281 13.5547C18.8281 14.2714 16.9868 15.3125 14.1016 15.3125C13.6236 15.3125 13.1576 15.2826 12.7086 15.2248C12.8541 14.6863 12.9297 14.1261 12.9297 13.5547C12.9297 13.3246 12.9171 13.0964 12.8932 12.8704C13.2879 12.9095 13.6918 12.9297 14.1016 12.9297C15.6424 12.9297 17.5529 12.6302 18.8281 11.7961V13.5547ZM18.8281 10C18.8281 10.7167 16.9868 11.7578 14.1016 11.7578C13.6028 11.7578 13.1148 11.7252 12.6455 11.6618C12.3414 10.6754 11.7989 9.76746 11.0472 9.00719C11.9531 9.27172 13.0054 9.41406 14.1016 9.41406C15.6424 9.41406 17.5529 9.11453 18.8281 8.28051V10ZM18.8281 6.48438C18.8281 7.20109 16.9868 8.24219 14.1016 8.24219C12.7732 8.24219 11.5334 8.01633 10.6107 7.60621C9.87254 7.2782 9.41406 6.84832 9.41406 6.48438V4.73418C10.6826 5.56566 12.577 5.85938 14.1016 5.85938C15.6424 5.85938 17.5529 5.55984 18.8281 4.72582V6.48438ZM14.1016 4.6875C11.2392 4.6875 9.41406 3.66191 9.41406 2.92969C9.41406 2.1952 11.2444 1.17188 14.1016 1.17188C16.9868 1.17188 18.8281 2.21297 18.8281 2.92969C18.8281 3.64641 16.9868 4.6875 14.1016 4.6875Z" fill="#344054"/>
</svg>
