<svg width="36" height="36" viewBox="0 0 36 36" fill="none" xmlns="http://www.w3.org/2000/svg">
<circle cx="18" cy="18" r="18" fill="#A85CF9" fill-opacity="0.16"/>
<path d="M15.1562 20.375C14.9066 20.375 14.6875 20.1413 14.6875 19.875C14.6875 19.6786 14.8114 19.5015 14.9958 19.4343C15.2364 19.3466 15.5168 19.4655 15.7648 19.7607C15.9313 19.9589 16.2269 19.9847 16.4252 19.8182C16.6234 19.6517 16.6492 19.356 16.4827 19.1578C16.2293 18.856 15.9343 18.6486 15.625 18.5445V18C15.625 17.7411 15.4151 17.5312 15.1562 17.5312C14.8974 17.5312 14.6875 17.7411 14.6875 18V18.5491C14.6833 18.5506 14.6791 18.5519 14.675 18.5534C14.1217 18.7549 13.75 19.286 13.75 19.875C13.75 20.2486 13.8937 20.6046 14.1545 20.8775C14.4227 21.158 14.7785 21.3125 15.1562 21.3125C15.4147 21.3125 15.625 21.5228 15.625 21.7812C15.625 21.9701 15.5126 22.1396 15.3388 22.2133C15.1289 22.3022 14.8777 22.2263 14.6494 22.0052C14.4635 21.8251 14.1668 21.8298 13.9866 22.0157C13.8065 22.2016 13.8112 22.4983 13.9971 22.6785C14.2087 22.8835 14.444 23.0284 14.6875 23.1101V23.6562C14.6875 23.9151 14.8974 24.125 15.1562 24.125C15.4151 24.125 15.625 23.9151 15.625 23.6562V23.1072C16.1967 22.9039 16.5625 22.3704 16.5625 21.7812C16.5625 21.0058 15.9317 20.375 15.1562 20.375Z" fill="#A85CF9"/>
<path d="M24.4688 10.5889C23.6056 10.2091 22.4736 10 21.2812 10C18.8412 10 16.5938 10.896 16.5938 12.3438C16.5938 12.706 16.5938 15.5223 16.5938 15.8608C16.1315 15.7262 15.6488 15.6562 15.1562 15.6562C13.7821 15.6562 12.4873 16.1992 11.5103 17.1852C10.5364 18.1682 10 19.4674 10 20.8438C10 23.6869 12.3131 26 15.1562 26C16.105 26 17.0172 25.745 17.8143 25.2676C18.6862 25.7353 19.9285 26 21.2812 26C22.4736 26 23.6056 25.7909 24.4688 25.4111C25.4562 24.9767 26 24.3535 26 23.6562C26 23.3643 26 12.6418 26 12.3438C26 11.6465 25.4562 11.0233 24.4688 10.5889ZM15.1562 25.0625C12.83 25.0625 10.9375 23.17 10.9375 20.8438C10.9375 18.5003 12.83 16.5938 15.1562 16.5938C17.4997 16.5938 19.4062 18.5003 19.4062 20.8438C19.4062 23.17 17.4997 25.0625 15.1562 25.0625ZM25.0625 23.6562C25.0625 24.2296 23.5895 25.0625 21.2812 25.0625C20.2993 25.0625 19.3717 24.9051 18.6678 24.6294C18.7175 24.5838 18.7666 24.5374 18.8148 24.4897C19.2369 24.0714 19.5775 23.5948 19.8294 23.0788C20.2951 23.1506 20.7816 23.1875 21.2812 23.1875C22.5138 23.1875 24.0424 22.9479 25.0625 22.2807V23.6562ZM25.0625 20.8438C25.0625 21.4171 23.5895 22.25 21.2812 22.25C20.8988 22.25 20.5261 22.2261 20.1668 22.1798C20.2833 21.7491 20.3438 21.3008 20.3438 20.8438C20.3438 20.6597 20.3337 20.4771 20.3145 20.2963C20.6303 20.3276 20.9534 20.3438 21.2812 20.3438C22.5139 20.3438 24.0423 20.1041 25.0625 19.4369V20.8438ZM25.0625 18C25.0625 18.5734 23.5895 19.4062 21.2812 19.4062C20.8822 19.4062 20.4919 19.3802 20.1164 19.3294C19.8732 18.5403 19.4391 17.814 18.8378 17.2057C19.5625 17.4174 20.4043 17.5312 21.2812 17.5312C22.5139 17.5312 24.0423 17.2916 25.0625 16.6244V18ZM25.0625 15.1875C25.0625 15.7609 23.5895 16.5938 21.2812 16.5938C20.2185 16.5938 19.2267 16.4131 18.4885 16.085C17.898 15.8226 17.5312 15.4787 17.5312 15.1875V13.7873C18.5461 14.4525 20.0616 14.6875 21.2812 14.6875C22.5139 14.6875 24.0423 14.4479 25.0625 13.7807V15.1875ZM21.2812 13.75C18.9914 13.75 17.5312 12.9295 17.5312 12.3438C17.5312 11.7562 18.9955 10.9375 21.2812 10.9375C23.5895 10.9375 25.0625 11.7704 25.0625 12.3438C25.0625 12.9171 23.5895 13.75 21.2812 13.75Z" fill="#A85CF9"/>
</svg>
