<svg width="20" height="18" viewBox="0 0 20 18" fill="none" xmlns="http://www.w3.org/2000/svg">
<path d="M18.2422 4.3125H15.3125V2.55469C15.3125 1.58543 14.5239 0.796875 13.5547 0.796875H1.75781C0.788555 0.796875 0 1.58543 0 2.55469V13.1016C0 13.3386 0.142773 13.5522 0.361719 13.6429C0.580703 13.7336 0.832695 13.6834 1.00027 13.5159L3.17238 11.3438H4.72656V13.1016C4.72656 14.0708 5.51512 14.8594 6.48438 14.8594H16.8276L18.9998 17.0315C19.1676 17.1994 19.4198 17.249 19.6383 17.1585C19.8573 17.0678 20 16.8541 20 16.6172V6.07031C20 5.10105 19.2114 4.3125 18.2422 4.3125ZM2.92969 10.1719C2.7743 10.1719 2.62527 10.2336 2.51539 10.3435L1.17188 11.687V2.55469C1.17188 2.2316 1.43473 1.96875 1.75781 1.96875H13.5547C13.8778 1.96875 14.1406 2.2316 14.1406 2.55469V4.3125H6.48438C5.51512 4.3125 4.72656 5.10105 4.72656 6.07031V10.1719H2.92969ZM18.8281 15.2026L17.4846 13.8591C17.3747 13.7492 17.2257 13.6875 17.0703 13.6875H6.48438C6.16129 13.6875 5.89844 13.4246 5.89844 13.1016V6.07031C5.89844 5.74723 6.16129 5.48438 6.48438 5.48438H18.2422C18.5653 5.48438 18.8281 5.74723 18.8281 6.07031V15.2026Z" fill="#344054"/>
<path d="M10 7.82812H14.7266C15.0502 7.82812 15.3125 7.56578 15.3125 7.24219C15.3125 6.91859 15.0502 6.65625 14.7266 6.65625H10C9.67641 6.65625 9.41406 6.91859 9.41406 7.24219C9.41406 7.56578 9.67641 7.82812 10 7.82812Z" fill="#344054"/>
<path d="M15.8984 9H8.82812C8.50453 9 8.24219 9.26234 8.24219 9.58594C8.24219 9.90953 8.50453 10.1719 8.82812 10.1719H15.8984C16.222 10.1719 16.4844 9.90953 16.4844 9.58594C16.4844 9.26234 16.222 9 15.8984 9Z" fill="#344054"/>
<path d="M14.7266 11.3438H10C9.67641 11.3438 9.41406 11.6061 9.41406 11.9297C9.41406 12.2533 9.67641 12.5156 10 12.5156H14.7266C15.0502 12.5156 15.3125 12.2533 15.3125 11.9297C15.3125 11.6061 15.0502 11.3438 14.7266 11.3438Z" fill="#344054"/>
</svg>
