<svg width="20" height="20" viewBox="0 0 20 20" fill="none" xmlns="http://www.w3.org/2000/svg">
<path d="M12.5001 18.9583H7.50008C2.97508 18.9583 1.04175 17.025 1.04175 12.5V7.49999C1.04175 2.97499 2.97508 1.04166 7.50008 1.04166H11.6667C12.0084 1.04166 12.2917 1.32499 12.2917 1.66666C12.2917 2.00832 12.0084 2.29166 11.6667 2.29166H7.50008C3.65841 2.29166 2.29175 3.65832 2.29175 7.49999V12.5C2.29175 16.3417 3.65841 17.7083 7.50008 17.7083H12.5001C16.3417 17.7083 17.7084 16.3417 17.7084 12.5V8.33332C17.7084 7.99166 17.9917 7.70832 18.3334 7.70832C18.6751 7.70832 18.9584 7.99166 18.9584 8.33332V12.5C18.9584 17.025 17.0251 18.9583 12.5001 18.9583Z" fill="#344054"/>
<path d="M18.3334 8.95834H15.0001C12.1501 8.95834 11.0417 7.85001 11.0417 5.00001V1.66668C11.0417 1.41668 11.1917 1.18334 11.4251 1.09168C11.6584 0.991678 11.9251 1.05001 12.1084 1.22501L18.7751 7.89168C18.9501 8.06668 19.0084 8.34168 18.9084 8.57501C18.8084 8.80834 18.5834 8.95834 18.3334 8.95834ZM12.2917 3.17501V5.00001C12.2917 7.15001 12.8501 7.70834 15.0001 7.70834H16.8251L12.2917 3.17501Z" fill="#344054"/>
<path d="M10.8333 11.4583H5.83325C5.49159 11.4583 5.20825 11.175 5.20825 10.8333C5.20825 10.4917 5.49159 10.2083 5.83325 10.2083H10.8333C11.1749 10.2083 11.4583 10.4917 11.4583 10.8333C11.4583 11.175 11.1749 11.4583 10.8333 11.4583Z" fill="#344054"/>
<path d="M9.16659 14.7917H5.83325C5.49159 14.7917 5.20825 14.5083 5.20825 14.1667C5.20825 13.825 5.49159 13.5417 5.83325 13.5417H9.16659C9.50825 13.5417 9.79159 13.825 9.79159 14.1667C9.79159 14.5083 9.50825 14.7917 9.16659 14.7917Z" fill="#344054"/>
</svg>
