<svg width="32" height="32" viewBox="0 0 32 32" fill="none" xmlns="http://www.w3.org/2000/svg">
<rect width="32" height="32" rx="16" fill="#EB4747"/>
<path d="M18.5 24.3333H13.5C10.7308 24.3333 10.6538 22.6279 10.5769 21.0775L10.0385 11.8527L9.11538 11.9302C8.80769 11.9302 8.5 11.6977 8.5 11.3876C8.5 11.0775 8.73077 10.7674 9.03846 10.7674L10.5769 10.6124C11.2692 10.5349 12.0385 10.4574 12.7308 10.4574L12.8846 9.44962C13.0385 8.67442 13.1923 7.66667 14.9615 7.66667H16.9615C18.7308 7.66667 18.9615 8.75194 19.0385 9.44962L19.2692 10.4574C20.5 10.5349 21.7308 10.6124 22.9615 10.7674C23.2692 10.7674 23.5 11.0775 23.5 11.3876C23.5 11.6977 23.1923 11.9302 22.8846 11.9302C22.5769 11.9302 22.2692 11.8527 21.9615 11.8527L21.5 21.155C21.3462 22.6279 21.2692 24.3333 18.5 24.3333ZM11.1923 11.6977L11.6538 21C11.7308 22.5504 11.8077 23.1705 13.4231 23.1705H18.5C20.1154 23.1705 20.1923 22.5504 20.2692 21L20.7308 11.6977C17.5769 11.4651 14.4231 11.3876 11.1923 11.6977ZM15.1923 10.3799C16.1154 10.3799 17.1154 10.3799 18.0385 10.4574L17.8846 9.68218C17.8077 8.9845 17.7308 8.90698 16.9615 8.90698H14.9615C14.1154 8.90698 14.1154 8.9845 14.0385 9.68218L13.8846 10.3799C14.3462 10.3799 14.8077 10.3799 15.1923 10.3799ZM17.2692 20.0698H14.7308C14.4231 20.0698 14.1154 19.8372 14.1154 19.4496C14.1154 19.062 14.3462 18.8295 14.7308 18.8295H17.2692C17.5769 18.8295 17.8846 19.062 17.8846 19.4496C17.8846 19.8372 17.5769 20.0698 17.2692 20.0698ZM17.9615 16.969H14.1154C13.8077 16.969 13.5 16.7364 13.5 16.3488C13.5 15.9612 13.7308 15.7287 14.1154 15.7287H17.9615C18.2692 15.7287 18.5769 15.9612 18.5769 16.3488C18.5769 16.7364 18.2692 16.969 17.9615 16.969Z" fill="white"/>
</svg>
