<svg width="20" height="20" viewBox="0 0 20 20" fill="none" xmlns="http://www.w3.org/2000/svg">
<path d="M9.99992 10.625C7.35825 10.625 5.20825 8.47499 5.20825 5.83332C5.20825 3.19166 7.35825 1.04166 9.99992 1.04166C12.6416 1.04166 14.7916 3.19166 14.7916 5.83332C14.7916 8.47499 12.6416 10.625 9.99992 10.625ZM9.99992 2.29166C8.04992 2.29166 6.45825 3.88332 6.45825 5.83332C6.45825 7.78332 8.04992 9.37499 9.99992 9.37499C11.9499 9.37499 13.5416 7.78332 13.5416 5.83332C13.5416 3.88332 11.9499 2.29166 9.99992 2.29166Z" fill="#344054"/>
<path d="M13.1833 18.9583C12.8666 18.9583 12.5666 18.8417 12.35 18.625C12.0916 18.3667 11.975 17.9917 12.0333 17.6L12.1916 16.475C12.2333 16.1834 12.4083 15.8417 12.6166 15.625L15.5666 12.675C16.75 11.4917 17.7916 12.1667 18.3 12.675C18.7333 13.1084 18.9583 13.575 18.9583 14.0417C18.9583 14.5167 18.7416 14.9583 18.3 15.4L15.3499 18.35C15.1416 18.5584 14.7916 18.7334 14.5 18.775L13.375 18.9333C13.3083 18.95 13.25 18.9583 13.1833 18.9583ZM16.925 13.2667C16.775 13.2667 16.6416 13.3667 16.45 13.5584L13.5 16.5083C13.475 16.5333 13.4333 16.6167 13.4333 16.65L13.2833 17.6917L14.325 17.5417C14.3583 17.5333 14.4416 17.4917 14.4666 17.4667L17.4166 14.5167C17.55 14.3833 17.7083 14.1917 17.7083 14.0417C17.7083 13.9167 17.6083 13.7417 17.4166 13.5584C17.2166 13.3584 17.0666 13.2667 16.925 13.2667Z" fill="#344054"/>
<path d="M17.4333 16.0166C17.375 16.0166 17.3167 16.0083 17.2667 15.9917C16.1667 15.6833 15.2917 14.8083 14.9833 13.7083C14.8917 13.375 15.0833 13.0333 15.4167 12.9417C15.75 12.85 16.0917 13.0416 16.1833 13.375C16.375 14.0583 16.9167 14.6 17.6 14.7917C17.9333 14.8833 18.125 15.2333 18.0334 15.5583C17.9584 15.8333 17.7083 16.0166 17.4333 16.0166Z" fill="#344054"/>
<path d="M2.8418 18.9583C2.50013 18.9583 2.2168 18.675 2.2168 18.3333C2.2168 14.775 5.70849 11.875 10.0002 11.875C10.9085 11.875 11.8085 12.0084 12.6501 12.2584C12.9835 12.3584 13.1668 12.7083 13.0668 13.0333C12.9668 13.3667 12.6168 13.55 12.2918 13.45C11.5585 13.2333 10.7918 13.1167 10.0002 13.1167C6.40015 13.1167 3.4668 15.45 3.4668 18.325C3.4668 18.675 3.18346 18.9583 2.8418 18.9583Z" fill="#344054"/>
</svg>
